<svg xmlns="http://www.w3.org/2000/svg">
    <defs>
        <symbol viewBox="0 0 512.005 512.005" id="search"><path d="M505.749 475.587l-145.6-145.6c28.203-34.837 45.184-79.104 45.184-127.317C405.333 90.926 314.41.003 202.666.003S0 90.925 0 202.669s90.923 202.667 202.667 202.667c48.213 0 92.48-16.981 127.317-45.184l145.6 145.6c4.16 4.16 9.621 6.251 15.083 6.251s10.923-2.091 15.083-6.251c8.341-8.341 8.341-21.824-.001-30.165zM202.667 362.669c-88.235 0-160-71.765-160-160s71.765-160 160-160 160 71.765 160 160-71.766 160-160 160z"/></symbol>

        <symbol viewBox="0 0 24 24" id="close"><g clip-path="url(#clip0)"><path d="M14.1988 12.0197l9.3451-9.3455c.6082-.6078.6082-1.5907 0-2.1986-.6079-.6079-1.5907-.6079-2.1986 0L11.9999 9.821 2.6547.4756c-.6081-.6079-1.5907-.6079-2.1986 0-.6081.6079-.6081 1.5908 0 2.1986l9.3452 9.3455L.456 21.3651c-.6081.6078-.6081 1.5907 0 2.1986.303.3032.7013.4555 1.0993.4555.398 0 .7961-.1523 1.0994-.4555l9.3451-9.3454 9.3454 9.3454a1.5506 1.5506 0 001.0993.4555c.3981 0 .7961-.1523 1.0993-.4555.6082-.6079.6082-1.5908 0-2.1986l-9.3451-9.3454z"/></g><defs><clipPath id="clip0"><path d="M0 0h24v24H0z"/></clipPath></defs></symbol>

        <symbol id="filter" viewBox="0 0 64 64">
            <g data-name="Layer 32">
            <path
                d="M33.5 19.14V12a1.5 1.5 0 00-3 0v7.14a6.07 6.07 0 000 11.74V52a1.5 1.5 0 003 0V30.88c6.02-1.54 6.02-10.21 0-11.74zM32 28.07a3.07 3.07 0 010-6.13 3.07 3.07 0 010 6.13zM53.5 32a6.07 6.07 0 00-4.56-5.87V12a1.5 1.5 0 00-3 0v14.13a6.07 6.07 0 000 11.74V52a1.5 1.5 0 003 0V37.87A6.07 6.07 0 0053.5 32zm-6 3.06a3.06 3.06 0 010-6.12 3.06 3.06 0 01-.04 6.12zM18.06 37V12a1.5 1.5 0 10-3 0v25a6.07 6.07 0 000 11.73V52a1.5 1.5 0 003 0v-3.26a6.07 6.07 0 000-11.74zm-1.5 8.94a3.07 3.07 0 010-6.13 3.07 3.07 0 010 6.13z"
            />
            </g>
        </symbol>

        <symbol viewBox="0 0 512 512" id="location" class="flex items-center fill-current">
            <path
            d="M256 0C114.844 0 0 114.844 0 256s114.844 256 256 256 256-114.844 256-256S397.156 0 256 0zm0 469.333c-58.116 0-110.82-23.418-149.333-61.238v-34.762c0-10.146 4.542-16.677 9.792-24.24C121.865 341.313 128 332.49 128 320c0-20.344-18.365-22.406-28.24-23.51-7.063-.792-13.729-1.542-17.552-5.365-2.896-2.896-5.792-8.156-8.854-13.719-6.081-11.064-14.324-25.695-30.017-34.656C50.236 131.296 142.837 42.667 256 42.667c5.855 0 11.611.414 17.349.879-1.168.767-2.599 1.288-3.557 2.246-2.073 2.073-3.208 4.917-3.125 7.854.094 2.927 1.385 5.698 3.573 7.656 3.833 3.406 4.573 5.125 4.719 5.125-.24.51-2.198 3.854-13.115 9.396-18.021 9.135-38.833 27.833-41.927 47.292-1.417 8.833 1.146 17.031 7.208 23.094 2 2 4.708 3.125 7.542 3.125 14.813 0 26.26-5.479 37.333-10.771C283.365 133.135 294.104 128 309.333 128c41.865 0 74.667 9.375 74.667 21.333 0 4.385-1.365 5.729-1.885 6.229-5.24 5.156-23.083 4.823-38.771 4.583-4.156-.073-8.406-.146-12.677-.146-14.479 0-18.969-2.115-24.167-4.573-6.052-2.854-12.906-6.094-29.167-6.094-17.583 0-50.26 3.177-71.542 24.458-17.406 17.396-15.563 38.208-14.354 51.969.281 3.167.563 6.167.563 8.906 0 21.01 21.469 32 42.667 32 32.604 0 60.792 6.083 64 10.667 0 11.938 3.552 20.094 6.406 26.635 2.375 5.469 4.26 9.781 4.26 16.031 0 4.833-.792 5.865-2.927 8.615-4.073 5.292-7.74 11.052-7.74 23.385 0 22.448 21.615 47.073 24.073 49.813 2.052 2.271 4.948 3.521 7.927 3.521.885 0 1.771-.104 2.646-.333 6.281-1.615 61.354-16.771 61.354-53 0-11.354 3.531-14.417 8.885-19.063 5.25-4.563 12.448-10.802 12.448-23.604 0-8.552 15.177-30.625 29.24-46.177a10.6769 10.6769 0 002.719-8.094c-.26-2.958-1.74-5.677-4.083-7.49-8.292-6.427-31.188-27.354-38.854-47.656 4.344 2.271 9.781 5.969 14.104 10.292 3.552 3.573 8.313 5.281 13.729 5.063 8.639-.493 18.902-7.319 28.628-15.833 4.975 18.046 7.852 36.956 7.852 56.563-.001 117.635-95.699 213.333-213.334 213.333z"
            />
        </symbol>

        <symbol viewBox="0 0 512 512" id="clock"><path d="M347.216 301.211l-71.387-53.54V138.609c0-10.966-8.864-19.83-19.83-19.83-10.966 0-19.83 8.864-19.83 19.83v118.978c0 6.246 2.935 12.136 7.932 15.864l79.318 59.489c3.569 2.677 7.734 3.966 11.878 3.966 6.048 0 11.997-2.717 15.884-7.952 6.585-8.746 4.8-21.179-3.965-27.743z"/><path d="M256 0C114.833 0 0 114.833 0 256s114.833 256 256 256 256-114.833 256-256S397.167 0 256 0zm0 472.341c-119.275 0-216.341-97.066-216.341-216.341S136.725 39.659 256 39.659c119.295 0 216.341 97.066 216.341 216.341S375.275 472.341 256 472.341z"/></symbol>
    </defs>
</svg>